<?xml version="1.0" encoding="UTF-8"?>
<svg id="Layer_2" data-name="Layer 2" xmlns="http://www.w3.org/2000/svg" xmlns:xlink="http://www.w3.org/1999/xlink" viewBox="0 0 37.86 35.36">
  <defs>
    <style>
      .cls-1 {
        fill: #ffffff;
      }

      .cls-2 {
        fill: url(#linear-gradient);
      }
    </style>
    <linearGradient id="linear-gradient" x1="-545.07" y1="2074.19" x2="-545.07" y2="2005.19" gradientTransform="translate(564 2055.69) scale(1 -1)" gradientUnits="userSpaceOnUse">
      <stop offset=".25" stop-color="#fff"/>
      <stop offset="1" stop-color="#bfc2ca"/>
    </linearGradient>
  </defs>
  <g id="Layer_1-2" data-name="Layer 1">
    <path class="cls-2" d="M30.31,0H7.55C3.38,0,0,3.38,0,7.55v20.25c0,4.17,3.38,7.55,7.55,7.55h22.75c4.17,0,7.55-3.38,7.55-7.55V7.55c0-4.17-3.38-7.55-7.55-7.55Z"/>
    <path class="cls-1" d="M16.49,28.22h-5.02c0-8.23,6.69-14.92,14.92-14.92v5.02c-5.46,0-9.9,4.44-9.9,9.9h0Z"/>
    <path class="cls-1" d="M18.08,14.35V3.64l-5.02,4.39v11.04c1.32-1.91,3.03-3.52,5.02-4.72Z"/>
    <path class="cls-1" d="M21.71,20.96c-1.42.91-2.54,2.23-3.24,3.78l3.34,3.49h6.67l-6.78-7.26h0Z"/>
  </g>
</svg>